<svg xmlns="http://www.w3.org/2000/svg" width="114.863" height="114.863" xmlns:v="https://vecta.io/nano"><path d="M112.693 52.319L62.544 2.172a7.4 7.4 0 0 0-10.461 0L41.67 12.586l13.209 13.21c3.07-1.037 6.59-.341 9.037 2.106 2.461 2.462 3.151 6.013 2.087 9.094l12.732 12.73c3.081-1.062 6.633-.376 9.094 2.089 3.438 3.437 3.438 9.007 0 12.447s-9.01 3.44-12.451 0c-2.585-2.588-3.225-6.387-1.914-9.573L61.59 42.815v31.246c.837.415 1.628.968 2.327 1.664 3.437 3.437 3.437 9.007 0 12.45-3.437 3.436-9.011 3.436-12.446 0-3.437-3.442-3.437-9.013 0-12.45a8.79 8.79 0 0 1 2.883-1.92V42.269c-1.05-.43-2.031-1.066-2.883-1.921-2.603-2.603-3.23-6.424-1.895-9.622L36.553 17.702 2.166 52.086c-2.888 2.891-2.888 7.575 0 10.464l50.151 50.147a7.4 7.4 0 0 0 10.461 0l49.915-49.915a7.4 7.4 0 0 0 0-10.464" fill="#100f0d"/></svg>