<svg xmlns="http://www.w3.org/2000/svg" width="285" height="285" viewBox="-14.5 0 285 285" preserveAspectRatio="xMidYMid" xmlns:v="https://vecta.io/nano"><path d="M230.4 0c13.996 0 25.37 11.232 25.597 25.177l.003.423v233.244c0 13.996-11.235 25.37-25.177 25.597l-.423.003H25.6c-13.996 0-25.37-11.235-25.597-25.177L0 258.844V25.6C0 11.601 11.235.229 25.177.003L25.6 0h204.8zm0 14.222H25.6c-6.174 0-11.218 4.947-11.374 11.085l-.004.293v233.244c0 6.174 4.947 11.218 11.085 11.374l.293.004h204.8c6.177 0 11.218-4.947 11.374-11.085l.004-.293V25.6c0-6.272-5.102-11.378-11.378-11.378zM64 184.889l32 28.444-32 28.444v-56.889zM92.444 42.667v80.75c14.201-4.622 34.052-9.639 53.333-9.639 17.582 0 28.107 6.912 33.838 12.711 12.109 12.25 12.397 27.82 12.381 29.897l-.001.059.004 85.333h-28.444v-84.942c-.139-6.638-3.339-14.613-17.778-14.613-28.632 0-60.713 14.256-61.666 14.683l-.019.009L64 166.016V42.667h28.444zm99.556 0c-1.92 16.156-8.469 31.644-21.333 46.222h0-28.444c11.179-14.667 18.197-30.101 21.333-46.222h0z" fill="#430098"/></svg>