<svg xmlns="http://www.w3.org/2000/svg" height="512" width="512" xmlns:v="https://vecta.io/nano"><path d="M512.002 432c0 44.182-35.816 80-80 80H80c-44.183 0-80-35.818-80-80V80C0 35.817 35.817 0 80 0h352.002c44.184 0 80 35.817 80 80v352z" fill="#0769ad"/><path d="M512.002 432V301.105L397.948 187.051l-10.843 16.303.356.356-3.254 1.141-98.85-98.85-2.25 3.456.367.367-3.554 3.903-8.254 26.605v28.208L223.2 120.074l-2.25 3.456.254.253-7.678 10.453L206.335 153l-5.159 51.588-54.549-54.549-.843-.873-.014.017-.017-.017-.179.273-17.24 22.69-10 51.817 62.925 114.43-22.144 22.143L310.597 512h121.405c44.184 0 80-35.818 80-80z" fill="#05568d"/><path d="M223.188 120.076c-12.768 22.4-14.355 50-6.982 74.597 7.031 23.707 21.826 44.617 40.504 59.925.391.329.805.647 1.208.977 1.745 1.392 3.528 2.76 5.358 4.078l2.576 1.758 1.196.842c1.306.855 2.637 1.709 3.979 2.516.257.17.525.316.781.463 1.087.66 2.186 1.295 3.284 1.93l1.501.793 2.601 1.379a118.14 118.14 0 0 0 5.163 2.49l1.136.5 4.236 1.771 1.77.684a134.26 134.26 0 0 0 3.931 1.402l1.685.574a150.47 150.47 0 0 0 5.615 1.686c42.664 11.486 82.629-3.236 103.271-34.096 0 0-22.9 79.262-122.07 62.207-1.929-.328-3.76-1.086-5.604-1.672l-1.745-.586-3.882-1.391-1.808-.697c-1.416-.561-2.807-1.158-4.211-1.77-.379-.17-.757-.316-1.135-.488a131.45 131.45 0 0 1-5.14-2.49c-1.208-.609-2.026-1.049-2.845-1.502-.414-.23-.83-.426-1.244-.67-1.185-.66-2.369-1.355-3.528-2.051-.183-.111-.378-.221-.562-.342a92.57 92.57 0 0 1-3.992-2.539c-.391-.244-.769-.525-1.159-.795l-2.454-1.672c-2.002-1.439-3.783-2.807-5.541-4.199l-1.172-.951c-1.734-1.441-3.467-2.906-5.127-4.42a139.27 139.27 0 0 1-4.639-4.443l-1.123-1.172c-1.49-1.514-2.93-3.051-4.322-4.639-3.809-3.441-7.006-8.533-9.887-12.817a129.2 129.2 0 0 1-8.496-14.723c-14.979-30.347-16.016-68.762 3.186-97.449l15.687-22.998zm-77.404 29.09c-23.389 46.936-12.879 104.065 16.394 145.508 1.05 1.502 2.124 2.99 3.235 4.48l1.037 1.33c.903 1.209 1.855 2.418 2.808 3.602l1.025 1.258c1.27 1.563 2.563 3.1 3.894 4.613l4.041 4.432 1.221 1.281c1.025 1.074 2.075 2.137 3.137 3.186.403.416.818.818 1.233 1.234l4.37 4.113 4.602 4.027 1.477 1.234 3.345 2.709 1.636 1.281 3.687 2.771c.427.293.83.623 1.269.928 1.282.916 2.588 1.807 3.906 2.686l1.478 1.025a172.22 172.22 0 0 0 5.481 3.492c.488.293.951.549 1.439.83l4.199 2.453c.781.451 1.575.842 2.356 1.281l3.528 1.855 1.306.646c1.501.758 3.015 1.479 4.554 2.197l1.074.502a161.78 161.78 0 0 0 5.395 2.318l1.393.574a141.97 141.97 0 0 0 5.004 1.916c2.637.965 4.541 1.611 6.434 2.209l1.477.465c1.941.598 3.883 1.232 5.872 1.709 52.698 12.439 108.338 1.27 139.674-41.113 0 0-37.317 104.443-165.772 80.127-2.014-.379-3.967-1.111-5.92-1.734-.465-.133-.928-.293-1.393-.426l-5.725-1.953c-2.381-.855-4.09-1.527-5.799-2.197l-1.318-.551c-1.83-.744-3.649-1.537-5.443-2.355-.342-.146-.66-.293-1.002-.451l-4.663-2.246-1.208-.611a117.37 117.37 0 0 1-3.625-1.928c-.757-.402-1.538-.793-2.283-1.221l-4.114-2.393-1.514-.891c-1.855-1.123-3.687-2.295-5.493-3.492-.513-.342-1.013-.707-1.514-1.049-1.184-.781-2.368-1.588-3.516-2.406-.806-.572-1.221-.902-1.672-1.232l-3.613-2.686-1.721-1.367-3.21-2.611-1.6-1.318-3.857-3.383c-.244-.219-.488-.426-.744-.646-1.502-1.367-2.918-2.709-4.31-4.076-.427-.404-.854-.83-1.27-1.246l-3.101-3.174c-.415-.414-.83-.854-1.245-1.293l-3.882-4.248a171.3 171.3 0 0 1-4.053-4.785l-1.037-1.295-2.747-3.49c-.366-.502-.744-.99-1.123-1.49-1.001-1.342-2.002-2.709-2.954-4.09-.183-.256-.378-.5-.562-.768l-3.345-5.006-.952-1.537-2.246-3.639-1.11-1.904-1.941-3.441-1.05-1.953c-.195-.367-.415-.732-.586-1.1-.342-.623-.635-1.27-.952-1.904l-1.489-2.99c-20.288-42.102-23.596-93.654 2.954-133.29l20.739-27.293zm139.538-43.165c-15.662 29.382-.757 65.441 23.267 84.362a79.46 79.46 0 0 0 13.501 8.557c2.515 1.245 5.103 2.356 7.715 3.32 2.051.745 4.37 1.55 6.494 2.087 26.831 6.763 48.694 2.087 61.706-17.358-3.955 5.908-18.811 46.07-73.571 35.083-1.208-.244-2.368-.684-3.54-1.063-.366-.109-.721-.244-1.074-.354l-2.466-.891c-19.824-7.545-36.792-23.45-45.081-43.738-7.861-19.092-6.751-40.576 4.578-57.886l8.471-12.119z" fill="#fff"/></svg>