<svg xmlns="http://www.w3.org/2000/svg" width="2270" height="2500" viewBox="0 0 256 282" preserveAspectRatio="xMinYMin meet" fill="#8cc84b" xmlns:v="https://vecta.io/nano"><path d="M116.504 3.58c6.962-3.985 16.03-4.003 22.986 0l104.99 59.303c6.581 3.707 10.983 11.031 10.916 18.614v118.968c.049 7.897-4.788 15.396-11.731 19.019l-104.616 59.019c-7.106 4.063-16.356 3.75-23.24-.646l-31.39-18.15c-2.137-1.274-4.546-2.288-6.055-4.36 1.334-1.798 3.719-2.022 5.657-2.807 4.365-1.388 8.374-3.616 12.384-5.778 1.014-.694 2.252-.428 3.224.193l26.777 15.481c1.914 1.105 3.852-.362 5.488-1.274l102.72-57.968c1.268-.61 1.969-1.956 1.866-3.345l.012-117.742c.145-1.576-.767-3.025-2.192-3.67l-104.253-58.76a3.621 3.621 0 0 0-4.094-.006L21.712 78.454c-1.42.646-2.373 2.071-2.204 3.653v117.748a3.329 3.329 0 0 0 1.89 3.303l27.84 15.722c5.228 2.814 11.647 4.486 17.407 2.33 5.083-1.823 8.646-7.01 8.549-12.407l.036-117.048c-.127-1.732 1.516-3.163 3.2-3l13.374.012c1.86-.042 3.14 1.823 2.91 3.568l-.03 117.79c.012 10.464-4.287 21.85-13.966 26.97-11.924 6.177-26.662 4.867-38.442-1.056-10.198-5.09-19.93-11.097-29.947-16.55C5.368 215.886.555 208.357.604 200.466V81.497c-.073-7.74 4.504-15.197 11.29-18.85L116.504 3.58zm30.424 82.41c15.21-.979 31.493-.58 45.18 6.913 10.597 5.742 16.472 17.793 16.659 29.566-.296 1.588-1.956 2.464-3.472 2.355-4.413-.006-8.827.06-13.24-.03-1.872.072-2.96-1.654-3.195-3.309-1.268-5.633-4.34-11.212-9.642-13.929-8.139-4.075-17.576-3.87-26.451-3.785-6.479.344-13.446.905-18.935 4.715-4.214 2.886-5.494 8.712-3.99 13.404 1.418 3.369 5.307 4.456 8.489 5.458 18.33 4.794 37.754 4.317 55.734 10.626 7.444 2.572 14.726 7.572 17.274 15.366 3.333 10.446 1.872 22.932-5.56 31.318-6.027 6.901-14.805 10.657-23.56 12.697-11.647 2.597-23.734 2.663-35.562 1.51-11.122-1.268-22.696-4.19-31.282-11.768-7.342-6.375-10.928-16.308-10.572-25.895.085-1.619 1.697-2.748 3.248-2.615l13.332.006c1.775-.127 3.091 1.407 3.182 3.08.82 5.367 2.837 11 7.517 14.182 9.032 5.827 20.365 5.428 30.707 5.591 8.568-.38 18.186-.495 25.178-6.158 3.689-3.23 4.782-8.634 3.785-13.283-1.08-3.925-5.186-5.754-8.712-6.95-18.095-5.724-37.736-3.647-55.656-10.12-7.275-2.571-14.31-7.432-17.105-14.906-3.9-10.578-2.113-23.662 6.098-31.765 8.006-8.06 19.563-11.164 30.551-12.275z"/></svg>